<?xml version="1.0" encoding="utf-8"?>
<svg xmlns="http://www.w3.org/2000/svg" height="62.487" viewBox="0 0 65.552 62.487" width="65.552">
  <defs>
    <clipPath id="clip-path">
      <rect data-name="Rectángulo 4476" fill="none" height="62.487" id="Rectngulo_4476" width="65.552"/>
    </clipPath>
  </defs>
  <g data-name="Grupo 4412" id="Grupo_4412" transform="translate(0 -13.442)">
    <g clip-path="url(#clip-path)" data-name="Grupo 4411" id="Grupo_4411" transform="translate(0 13.442)">
      <path d="M65.552,61.842a1.467,1.467,0,0,1-1.359.645q-31.44-.015-62.879-.011c-.212,0-.494.045-.62-.069a1.946,1.946,0,0,1-.678-.892c-.092-.452.246-.793.713-.92a1.009,1.009,0,0,1,.443-.033c.97.194,1.443-.275,1.906-1.106,3.516-6.314,7.09-12.6,10.648-18.888,1.39-2.458,3.855-2.606,5.561-.338.205.273.408.547.615.819.063.083.136.159.242.283.119-.235.226-.43.319-.632q4.865-10.534,9.724-21.071a4.194,4.194,0,0,1,1.375-1.8c.177-.124.23-.517.231-.787q.02-7.716.012-15.432a5.2,5.2,0,0,1,.047-.828A.86.86,0,0,1,32.79,0a.846.846,0,0,1,.883.768c.057.4.061.8.093,1.262h.711c2.732,0,5.464-.019,8.2.021a1.757,1.757,0,0,1,1.15.482c.368.4.1.872-.182,1.28-.5.74-.994,1.49-1.506,2.261.5.754.991,1.5,1.494,2.241a1.166,1.166,0,0,1,.228,1.3c-.254.465-.7.494-1.164.493q-4.1-.01-8.2,0h-.727c-.019.249-.044.434-.044.62,0,2.049.006,4.1-.009,6.147a.731.731,0,0,0,.481.755A5.333,5.333,0,0,1,35.745,18.9c.865,1.078,1.629,2.237,2.458,3.395.447-.223.861-.433,1.279-.638a3.057,3.057,0,0,1,4.446,1.472q6.019,11.717,12.026,23.439c2.286,4.456,4.581,8.909,6.848,13.375a.906.906,0,0,0,1.015.619c.667-.068,1.335-.059,1.735.636Zm-28.8-30.788c-.291.331-.516.585-.738.841-2.37,2.725-4.169,2.672-6.494.026-.6-.684-1.269-1.309-1.925-1.981a3.016,3.016,0,0,0-.189.292q-2.9,6.269-5.772,12.546a.924.924,0,0,0,.112.719,1,1,0,0,1-.043,1.343.973.973,0,0,1-1.536-.233c-.857-1.117-1.69-2.254-2.54-3.376-.733-.969-1.554-.919-2.154.142Q10.2,50.7,4.934,60.027c-.085.151-.147.315-.222.475H39.856c-3.45-3.979-6.825-7.887-10.222-11.776a1.084,1.084,0,0,0-1.807.106c-.467.582-.89,1.2-1.35,1.788a1,1,0,0,1-1.79.01c-.644-.823-1.266-1.664-1.884-2.508a1,1,0,0,1,.051-1.481c.455-.362,1.04-.235,1.488.34.4.516.79,1.045,1.231,1.631.237-.31.429-.558.619-.808a3.045,3.045,0,0,1,5.061-.159q5.413,6.24,10.812,12.491a1.149,1.149,0,0,0,.982.43q8.613-.016,17.227-.009c.2,0,.4-.02.675-.035L48.272,35.806c-.427.777-.74,1.46-1.152,2.076a2.847,2.847,0,0,1-4.258.625,37.318,37.318,0,0,1-3.218-3.886.827.827,0,0,1,.2-1.2.883.883,0,0,1,1.268.068,4.455,4.455,0,0,1,.417.484c.748.932,1.48,1.878,2.245,2.8a1.082,1.082,0,0,0,1.924-.2q.689-1.3,1.309-2.634A.758.758,0,0,0,47,33.348q-2.416-4.762-4.868-9.505a1.112,1.112,0,0,0-1.667-.523c-.483.225-.952.478-1.429.716-1.339.67-1.5.63-2.357-.567s-1.7-2.405-2.572-3.59a1.069,1.069,0,0,0-1.925.068c-1.282,2.691-2.514,5.406-3.772,8.126,1.185,1.186,2.335,2.359,3.511,3.5a1.088,1.088,0,0,0,1.7,0c.606-.57,1.165-1.191,1.778-1.753a2.078,2.078,0,0,1,3.354.741.939.939,0,0,1-1.458,1.116,5.139,5.139,0,0,1-.53-.627M41.181,4.026H33.759v4.12H41.2c-.339-.51-.627-.95-.924-1.385a1.1,1.1,0,0,1,0-1.365c.3-.436.585-.882.908-1.37" data-name="Trazado 2197" id="Trazado_2197" transform="translate(0 0)"/>
    </g>
  </g>
</svg>