<?xml version="1.0" encoding="utf-8"?>
<svg xmlns="http://www.w3.org/2000/svg" height="62.451" viewBox="0 0 62.435 62.451" width="62.435">
  <defs>
    <clipPath id="clip-path">
      <rect data-name="Rectángulo 4478" fill="none" height="62.451" id="Rectngulo_4478" width="62.435"/>
    </clipPath>
  </defs>
  <g clip-path="url(#clip-path)" data-name="Grupo 4415" id="Grupo_4415">
    <path d="M30.849,62.452a1.433,1.433,0,0,1-.618-1.414c.04-.482.008-.969.008-1.515A28.392,28.392,0,0,1,2.925,32.2c-.626,0-1.211.007-1.8,0-.7-.011-1.144-.407-1.128-1,.015-.571.438-.937,1.117-.948.586-.009,1.172,0,1.806,0A28.388,28.388,0,0,1,30.24,2.928c0-.59,0-1.17,0-1.75C30.248.451,30.6.016,31.191,0c.609-.015.991.436,1,1.191.005.565,0,1.13,0,1.735A28.381,28.381,0,0,1,59.5,30.248c.517,0,1.021.032,1.519-.008a1.434,1.434,0,0,1,1.414.618v.732a1.44,1.44,0,0,1-1.413.618c-.5-.041-1-.008-1.52-.008A28.381,28.381,0,0,1,32.191,59.52c0,.549-.032,1.036.008,1.518a1.438,1.438,0,0,1-.618,1.413ZM57.505,30.223C57.071,15.545,44.49,4.956,32.238,4.975V6.829c.349.033.652.066.956.09a23.5,23.5,0,0,1,10.458,3.34A39.768,39.768,0,0,1,47.064,12.7a.914.914,0,0,1,.145,1.354.98.98,0,0,1-1.366.136c-.182-.128-.348-.281-.524-.418A21.9,21.9,0,0,0,27.372,9.138,22.426,22.426,0,1,0,53.643,31.557,22.179,22.179,0,0,0,48.43,16.83c-.517-.63-.529-1.215-.052-1.6s1.02-.277,1.559.371a23.418,23.418,0,0,1,4.937,9.809c.364,1.574.558,3.186.835,4.817Zm-1.91,2A24.52,24.52,0,0,1,32.23,55.613v1.9c14.349-.385,25.184-12.668,25.233-25.292Zm-50.677,0c.5,14.953,13.285,25.29,25.3,25.245V55.611A24.524,24.524,0,0,1,6.83,32.224Zm1.914-2A24.525,24.525,0,0,1,30.2,6.834v-1.9C15.842,5.316,5,17.625,4.968,30.225Z" data-name="Trazado 2199" id="Trazado_2199" transform="translate(0 -0.001)"/>
    <path d="M157.069,63.351q0,3.446,0,6.891a3.123,3.123,0,0,1-.014.548.969.969,0,0,1-1.921.015,2.195,2.195,0,0,1-.015-.426q0-7.013,0-14.027c0-.061,0-.122,0-.183.022-.675.391-1.1.967-1.1a.986.986,0,0,1,.981,1.086c.011.427,0,.854,0,1.281v5.916" data-name="Trazado 2200" id="Trazado_2200" transform="translate(-124.878 -44.334)"/>
    <path d="M188.807,155.162q3.536,0,7.072,0c.694,0,1.116.347,1.152.913a.991.991,0,0,1-1.094,1.033c-1.077.012-2.154,0-3.231,0-3.658,0-7.316.005-10.975-.01a1.312,1.312,0,0,1-.893-.245,1.411,1.411,0,0,1-.3-1.016c.075-.5.515-.682,1.016-.681q2.652.005,5.3,0h1.951" data-name="Trazado 2201" id="Trazado_2201" transform="translate(-145.335 -124.915)"/>
    <path d="M64.187,155.162q3.536,0,7.073,0c.669,0,1.077.315,1.148.852a.991.991,0,0,1-1.088,1.094c-1.077.012-2.154,0-3.231,0-3.617,0-7.235.005-10.853-.01a1.314,1.314,0,0,1-.894-.245,1.413,1.413,0,0,1-.3-1.016c.075-.5.515-.683,1.015-.682q2.652.005,5.3,0h1.829" data-name="Trazado 2202" id="Trazado_2202" transform="translate(-45.106 -124.915)"/>
    <path d="M155.117,188.672c0-2.317-.007-4.635.008-6.952a1.281,1.281,0,0,1,.2-.85,1.489,1.489,0,0,1,1-.371.842.842,0,0,1,.731.914c.015.813.006,1.626.006,2.439q0,5.763,0,11.526c0,.163.006.326,0,.488a.984.984,0,0,1-.973,1.034.964.964,0,0,1-.97-1.033c-.015-1.525-.006-3.049-.006-4.574q0-1.311,0-2.622" data-name="Trazado 2203" id="Trazado_2203" transform="translate(-124.877 -145.312)"/>
  </g>
</svg>