<?xml version="1.0" encoding="utf-8"?>
<svg xmlns="http://www.w3.org/2000/svg" height="96.296" viewBox="0 0 96.296 96.296" width="96.296">
  <defs>
    <filter filterUnits="userSpaceOnUse" height="96.296" id="Rectngulo_4442" width="96.296" x="0" y="0">
      <feOffset dx="1" dy="1"/>
      <feGaussianBlur result="blur" stdDeviation="2"/>
      <feFlood flood-opacity="0.271"/>
      <feComposite in2="blur" operator="in"/>
      <feComposite in="SourceGraphic"/>
    </filter>
    <clipPath id="clip-path">
      <rect data-name="Rectángulo 4452" fill="none" height="60.265" id="Rectngulo_4452" width="60.156"/>
    </clipPath>
  </defs>
  <g data-name="Grupo 4376" id="Grupo_4376" transform="translate(5 5)">
    <g filter="url(#Rectngulo_4442)" transform="matrix(1, 0, 0, 1, -5, -5)">
      <rect data-name="Rectángulo 4442" fill="#fe0026" height="84.296" id="Rectngulo_4442-2" rx="3" transform="translate(5 5)" width="84.296"/>
    </g>
    <g data-name="Grupo 4361" id="Grupo_4361" transform="translate(12.287 12.293)">
      <g clip-path="url(#clip-path)" data-name="Grupo 4360" id="Grupo_4360">
        <path d="M59.373,8.856c-1.917-.657-4.646-.678-6.657-1.239-.375-.24-1.146-6.051-1.462-6.92A.96.96,0,0,0,49.509.46L40.67,9.38l-.113.671,1.306,6.761c-.039.406-.951,1.057-1.256,1.387a24.688,24.688,0,0,0-23.881-5.13C-.851,18.665-5.888,41.623,7.967,53.957c16.466,14.659,41.646,2.016,40.32-19.895-.194-3.2-1.957-9.1-4.077-11.54-.558-.642-1.415-.661-1.733.171-.234.611,1.513,3.152,1.882,3.952A22.267,22.267,0,1,1,34.9,16.54c1.486.811,2.758,1.908,4.166,2.825.066.241-.065.273-.16.411-.743,1.078-2.463,2.186-3.294,3.294-5.326-4.229-11.867-5.475-18.257-2.8C4.434,25.681,3.4,43.981,15.592,50.943A17.2,17.2,0,0,0,41.181,33.6c-.156-1.153-1.262-5.636-2.282-6.1a.98.98,0,0,0-1.438.677c-.035.338,1.153,2.814,1.357,3.511a15.317,15.317,0,1,1-4.691-7.149c-.562.45-3.689,3.9-4,3.849-8.11-6.2-19.082,2.521-14.725,11.9,4.755,10.241,20.754,4.881,18.33-6.148-.215-.978-.349-1.982-1.621-1.6-.909.272-.172,2-.118,2.681.662,8.23-9.9,11.862-14.283,5.227C12.849,33.1,21.727,24.78,28.863,29.718c.065.24-.065.274-.16.412-.2.294-3.086,3.184-3.3,3.28-1.071.487-2.2-.536-3.374,1.067-2.414,3.3,3.366,6.042,4.537,2.4.287-.893-.146-1.658.145-2.154L42.922,18.532a1.379,1.379,0,0,1,.991-.156c1.5.091,5.91,1.525,6.995,1.065l9.06-9.026a.991.991,0,0,0-.6-1.559m-9.161,8.592a1.066,1.066,0,0,1-.513.091,39.607,39.607,0,0,1-5.406-1.016c-.244-.08-.488-.114-.585-.4l-1.067-6.08,7.036-6.947c.625,1.016.772,5.4,1.4,6,.6.567,5.024.966,6.086,1.235Z" data-name="Trazado 2175" fill="#fff" id="Trazado_2175" transform="translate(0 -0.001)"/>
      </g>
    </g>
  </g>
</svg>