<?xml version="1.0" encoding="utf-8"?>
<svg xmlns="http://www.w3.org/2000/svg" height="96.596" viewBox="0 0 96.596 96.596" width="96.596">
  <defs>
    <filter filterUnits="userSpaceOnUse" height="96.596" id="Rectngulo_4444" width="96.596" x="0" y="0">
      <feOffset dx="1" dy="1"/>
      <feGaussianBlur result="blur" stdDeviation="2"/>
      <feFlood flood-opacity="0.271"/>
      <feComposite in2="blur" operator="in"/>
      <feComposite in="SourceGraphic"/>
    </filter>
    <clipPath id="clip-path">
      <rect data-name="Rectángulo 4450" fill="none" height="56.659" id="Rectngulo_4450" width="51.023"/>
    </clipPath>
  </defs>
  <g data-name="Grupo 4374" id="Grupo_4374" transform="translate(5 5)">
    <g filter="url(#Rectngulo_4444)" transform="matrix(1, 0, 0, 1, -5, -5)">
      <rect data-name="Rectángulo 4444" fill="#2644f9" height="84.596" id="Rectngulo_4444-2" rx="3" transform="translate(5 5)" width="84.596"/>
    </g>
    <g data-name="Grupo 4357" id="Grupo_4357" transform="translate(16.787 15.177)">
      <g clip-path="url(#clip-path)" data-name="Grupo 4356" id="Grupo_4356">
        <path d="M90.3,99.51c-.3.12-.841.622-1.045.61a13.383,13.383,0,0,0-1.926-.931,6.1,6.1,0,0,0-1.8,0,3.639,3.639,0,0,0-2.527,2.094c-1.049,2.459.7,5.019,2.492,6.583.661.578,3.308,2.556,4.059,2.369a22.642,22.642,0,0,0,3.294-2.2c2-1.682,4.161-4.753,2.391-7.338A3.968,3.968,0,0,0,90.3,99.51m2.044,6.318c-.395.4-2.757,2.232-3.191,2.137-.737-.161-3.334-2.508-3.786-3.224-.613-.972-1.146-3.072.325-3.5,1.548-.454,2.613.664,3.561,1.671,3.137-3.828,6.659-.686,3.09,2.919" data-name="Trazado 2170" fill="#fff" id="Trazado_2170" transform="translate(-63.705 -76.366)"/>
        <path d="M50.427,14.871C48.262,9.64,40.655,9.477,35.915,10.3,34.677,6.337,31.077.586,26.562.054c-5.9-.7-9.583,5.509-11.39,10.223C9.923,9.393,1.5,9.745.176,16.249c-.892,4.4,1.971,8.7,4.4,12.1C2.1,31.726-.8,36.189.2,40.577c1.465,6.392,9.749,6.568,14.963,5.837,1.667,4.261,5.016,10.077,10.207,10.242,5.238.166,9.055-5.906,10.561-10.247,4.077.47,9.216.713,12.568-2.072,5.148-4.276,1.325-11.9-2.1-15.994,2.733-3.666,5.978-8.753,4.024-13.473M48.536,20.6c-.306,1-2.593,5.478-3.377,5.875-.247.125-.252.038-.433-.086-.633-.435-1.488-1.567-2.133-2.151-1.289-1.167-2.67-2.246-4.029-3.331a70.1,70.1,0,0,0-1.8-8.725c6.005-.822,14.265.24,11.768,8.417m-4.929,7.722a31.2,31.2,0,0,1-4.781,4.556V23.81c.719.32,4.839,4.174,4.781,4.509m-8.915-15.6a28.482,28.482,0,0,1,1.392,6.3l-7.875-4.532c.9-.377,5.926-2.128,6.483-1.771M24.862,2.081c4.733-.431,7.507,4.706,8.985,8.461-.055.25-3,.908-3.544,1.078-1.615.511-3.194,1.119-4.778,1.713-2.7-.976-5.408-2.166-8.276-2.523.952-3.087,4.036-8.4,7.614-8.729M16.4,12.706,22.9,14.4l-7.875,4.616Zm-11.814.6c2.771-1.721,6.639-1.337,9.747-1.125-.635,2.885-1.4,5.739-1.755,8.681a47.063,47.063,0,0,0-6.551,5.853C3.185,23.235-.563,16.506,4.591,13.3m7.69,10.334v9.236c-.762-.393-4.8-4.086-4.8-4.532ZM4.525,43.274c-5.049-3.1-1.335-9.965,1.507-13.3a57.3,57.3,0,0,0,6.5,5.82,53.04,53.04,0,0,0,1.978,8.542c-3.129.543-7.191.655-9.984-1.058m11.873.713-1.375-6.322,7.7,4.278c.285.3-.107.287-.242.355-.628.319-5.849,1.9-6.087,1.69M26.075,54.6c-4.465.34-7.483-5.075-8.83-8.64a55.625,55.625,0,0,0,8.148-2.649c2.807.888,5.525,2.13,8.466,2.561-.935,3.2-4.08,8.447-7.784,8.728m8.633-10.617c-.255.226-6.289-1.525-6.5-1.962l8.047-4.531Zm-9.183-2.941a50.294,50.294,0,0,1-10.982-6.408A49.515,49.515,0,0,1,14.6,21.93c.2-.441,4.691-3.188,5.449-3.623.9-.517,4.625-2.61,5.381-2.676.613-.053,5.293,2.517,6.151,3.018.96.56,2.04,1.215,2.952,1.84a10.523,10.523,0,0,1,2.027,1.567,16.616,16.616,0,0,1,.392,3.2,53.448,53.448,0,0,1-.4,9.452,58.628,58.628,0,0,1-11.025,6.337m20.924,2.267c-2.867,1.706-6.489,1.4-9.679,1.192.647-2.9,1.435-5.761,1.8-8.718,1.738-1.5,3.579-2.926,5.227-4.528.257-.25.9-1.381,1.27-1.291,2.79,3.39,6.463,10.32,1.38,13.345" data-name="Trazado 2171" fill="#fff" id="Trazado_2171" transform="translate(0 0)"/>
      </g>
    </g>
  </g>
</svg>