<?xml version="1.0" encoding="utf-8"?>
<svg xmlns="http://www.w3.org/2000/svg" height="96.833" viewBox="0 0 96.833 96.833" width="96.833">
  <defs>
    <filter filterUnits="userSpaceOnUse" height="96.833" id="Rectngulo_4443" width="96.833" x="0" y="0">
      <feOffset dx="1" dy="1"/>
      <feGaussianBlur result="blur" stdDeviation="2"/>
      <feFlood flood-opacity="0.271"/>
      <feComposite in2="blur" operator="in"/>
      <feComposite in="SourceGraphic"/>
    </filter>
    <clipPath id="clip-path">
      <rect data-name="Rectángulo 4451" fill="#013b18" height="54.678" id="Rectngulo_4451" width="50.564"/>
    </clipPath>
  </defs>
  <g data-name="Grupo 4375" id="Grupo_4375" transform="translate(5 5)">
    <g filter="url(#Rectngulo_4443)" transform="matrix(1, 0, 0, 1, -5, -5)">
      <rect data-name="Rectángulo 4443" fill="#43d87e" height="84.833" id="Rectngulo_4443-2" rx="3" transform="translate(5 5)" width="84.833"/>
    </g>
    <g data-name="Grupo 4359" id="Grupo_4359" transform="translate(17.235 14.933)">
      <g clip-path="url(#clip-path)" data-name="Grupo 4358" id="Grupo_4358">
        <path d="M45.6,14.736C54.812,13.82,53.789-.411,44.45.01,34.509.457,35.428,15.747,45.6,14.736M43.4,2.066c9.03-1.519,8.742,11.969.348,10.738-5.833-.856-5.833-9.814-.348-10.738" data-name="Trazado 2172" fill="#013b18" id="Trazado_2172" transform="translate(-28.824 0)"/>
        <path d="M25.8,74.331c.382,6.652.15,13.356.337,20.022.039,1.4.019,3.677.194,4.96.5,3.652,6.508,3.654,7.02,0l.706-8.743c0-.539,1.576-.581,1.547,0l.531,8.574c.862,4.247,7.2,3.76,7.215-.666l.168-19.5,1.2,3.183c2.376,3.166,6.427,1.436,5.776-2.677-.456-2.889-1.76-6.878-2.552-9.82-.2-.748-1.08-2.88-1.117-3.342-.021-.267.258-.529.3-.838.348-2.711-3.6-5.01-5.68-3.265-.2.165-.288.573-.452.614-1.073.264-1.97-.554-2.837.735-1.283,1.908-2.115,4.762-3.236,6.82-.115.086-.315-.3-.376-.4-1.131-1.809-1.964-4.783-3.09-6.362a1.737,1.737,0,0,0-.954-.765l-20.261-.034c-.352-.068-.663-.743-1.248-.987-1.927-.8-4.9.807-5.132,2.872a19.181,19.181,0,0,1-.707,3.4C2.091,72.269.93,76.4,0,80.595a3.206,3.206,0,0,0,6.111,1.3l.945-2.747a16.445,16.445,0,0,0,.181,3.514c.287,5.217-.355,11.184.167,16.325.4,3.981,6.159,3.949,6.973.785a15.3,15.3,0,0,0,.247-1.643c.129-1.055.332-7.666.678-7.912.248-.176,1.332-.065,1.4.211l.527,8.371c.378,4.245,6.825,4.5,7.211.025.4-4.606.074-9.931.159-14.615.007-.406.179-.782.186-1.189.046-2.749-.049-5.5-.007-8.253.048-.548.588-.438,1.032-.43m17.141-10.8c.8-.262,2.743.986,2.221,1.708-.677.935-3.533-1.28-2.221-1.708M7.53,63.545c2.355-.325-.58,2.834-1.694,1.6-.479-.53,1.157-1.527,1.694-1.6m15.985,8.93a1.183,1.183,0,0,0-.625.921c.068,6.237-.228,12.5-.361,18.708-.029,1.341.247,6.608-.184,7.375-.561,1-2.747.89-3.089-.311l-.675-9.462c.045-1.794-2.4-1.587-3.7-1.467-.731.068-1.374.184-1.59.989-.273,2.889-.254,5.839-.556,8.722-.113,1.085-.181,2.013-1.457,2.155-1.029.114-1.854-.164-1.985-1.289-.266-2.292-.132-5.961-.175-8.414-.1-5.884-.005-11.744-.243-17.624a.977.977,0,0,0-1.72-.327l-3.009,9.02a1.272,1.272,0,0,1-2.189-.89L5.17,67.895c.366-.937,1.945-.474,3.073-1.053,1.024-.526,1.473-1.555,2.342-2.127l18.879.034c.38.085.47.242.676.527,1.428,1.98,2.292,5.646,3.776,7.739.526.742,1.014.9,1.667.177l4.149-8.4c1.527-.334,1.747,1.483,3.2,2.133a12.585,12.585,0,0,0,2.281.385c.442.275,2.466,8.826,2.761,10.04a13.5,13.5,0,0,1,.7,3.408,1.224,1.224,0,0,1-2.158.629l-2.924-8.761a.953.953,0,0,0-1.756.108c-.29,1.009.007,4.161-.029,5.468-.1,3.517-.29,7.12-.358,10.637-.055,2.829.446,7.957-.2,10.448-.3,1.157-2.537,1.109-3.02.174L37.3,88.88c-.279-.957-4.563-.805-4.97-.177A14.955,14.955,0,0,0,32,91.083c-.189,2.065-.139,4.3-.348,6.353a13.952,13.952,0,0,1-.246,1.815c-.358,1.171-2.666,1.127-3.1.159-.285-.632-.051-3.91-.081-4.9-.2-6.406.083-13.44-.353-19.747a11.453,11.453,0,0,0-.329-2.035c-.24-.382-3.541-.4-4.022-.253" data-name="Trazado 2173" fill="#013b18" id="Trazado_2173" transform="translate(0 -47.397)"/>
        <path d="M127.168,17.659c9.363-.786,8.407-15.508-1.323-14.72s-8.592,15.553,1.323,14.72M122.5,14.165c-5.2-5.191,3.261-13.181,8.111-7.329,4.44,5.357-3.238,12.2-8.111,7.329" data-name="Trazado 2174" fill="#013b18" id="Trazado_2174" transform="translate(-91.649 -2.237)"/>
      </g>
    </g>
  </g>
</svg>