<?xml version="1.0" encoding="utf-8"?>
<svg xmlns="http://www.w3.org/2000/svg" height="96.75" viewBox="0 0 96.75 96.75" width="96.75">
  <defs>
    <filter filterUnits="userSpaceOnUse" height="96.75" id="Rectngulo_4441" width="96.75" x="0" y="0">
      <feOffset dx="1" dy="1"/>
      <feGaussianBlur result="blur" stdDeviation="2"/>
      <feFlood flood-opacity="0.271"/>
      <feComposite in2="blur" operator="in"/>
      <feComposite in="SourceGraphic"/>
    </filter>
    <clipPath id="clip-path">
      <rect data-name="Rectángulo 4453" height="60.909" id="Rectngulo_4453" width="61.804"/>
    </clipPath>
  </defs>
  <g data-name="Grupo 4377" id="Grupo_4377" transform="translate(5 5)">
    <g filter="url(#Rectngulo_4441)" transform="matrix(1, 0, 0, 1, -5, -5)">
      <g data-name="Rectángulo 4441" fill="#e2ff3c" id="Rectngulo_4441-2" stroke="#e2ff3c" stroke-width="6" transform="translate(5 5)">
        <rect height="84.75" rx="3" stroke="none" width="84.75"/>
        <rect fill="none" height="78.75" width="78.75" x="3" y="3"/>
      </g>
    </g>
    <g data-name="Grupo 4363" id="Grupo_4363" transform="translate(11.677 11.633)">
      <g clip-path="url(#clip-path)" data-name="Grupo 4362" id="Grupo_4362">
        <path d="M61.683,42.218c-.866-1.121-8.192-7.793-8.192-8.38C55.7,30.736,60,29,59.13,24.468a5.122,5.122,0,0,0-3.857-3.738c1.662-3.387-.415-7.5-4.322-7.505C51.055,10,49.263,7.4,45.9,7.173c-.366-.025-.9.354-1.295.073-.111-.08-.639-2-1.007-2.543a5.223,5.223,0,0,0-7.158-1.118c-1.171-2.4-2.869-3.9-5.717-3.529C28.8.3,27.775,1.916,26.366,3c-.414,0-1.26-1.166-1.69-1.474a5.075,5.075,0,0,0-8.1,3.22C12.137,4.1,9.3,6.808,10.2,11.279c-3.312,1.04-4.682,3.86-3.489,7.156-8.251,4.973.819,9.891,4.148,14.194L.212,43.287c-.666,1.348.328,2.366,1.7,1.7,3.606-3.531,7.068-7.309,10.814-10.638,5,3.981,8.618,11.515,15.91,11.023.089.342-.142.394-.294.592-3.383,4.4-9.3,8.512-12.924,12.908a1.19,1.19,0,1,0,1.778,1.58L31.13,46.571l1.161.762,13.2,13.219c1.35.666,2.369-.328,1.7-1.7L33.373,45.07c-2.8-2.889-6.731-1.33-9.765-3.451-5.7-3.982-11.11-11.958-16.682-16.448-1.575-1.361-1.523-4.029.892-4.25,2.132-.2,2.254,2.071,3.929,1.972,1.064-.063,1.09-1.265.683-2.037-.235-.447-1.725-1.511-2.246-2.091-1.124-1.251-2.256-2.626-.887-4.242,2.755-3.249,5.468,2.777,7.292,3.365a1.179,1.179,0,0,0,1.4-1.8c-.591-1.019-3.285-3.08-4.255-4.223A13.821,13.821,0,0,1,12.6,10.434a2.463,2.463,0,0,1,3.347-3.145c1.528.755,3.648,4.183,5.112,4.943.9.465,2.082.328,2.054-.862-.03-1.305-3.01-3.186-3.757-4.334a2.661,2.661,0,0,1,3.169-3.953l7.286,7.105c-3.991,2.776-3.083,8.94,1.968,9.567-.628,4.372,2.134,7.159,6.512,6.5a4.993,4.993,0,0,0,5.333,4.527c-.053,3.771,2.892,6,6.524,5.228.551-.117,1.026-.641,1.562-.41,1.394,1,7.645,8.232,8.6,8.386,1.264.2,1.736-.651,1.368-1.773M28.234,4.867c.611-.919,1.793-2.271,2.921-2.425a2.559,2.559,0,0,1,2.813,2.027c.205,1.868-1.113,2.678-2.3,3.832a18.485,18.485,0,0,1-3.433-3.435m2.092,8.192a84.094,84.094,0,0,1,7.289-7.3,4.16,4.16,0,0,1,1.826-.744,2.741,2.741,0,0,1,2.39,3.97l-7.881,7.895a2.648,2.648,0,0,1-3.624-3.816m7.77,10.518a2.644,2.644,0,0,1-3.542-3.733l9.662-9.664a1.874,1.874,0,0,1,.943-.438c2.826-.506,4.2,2.186,2.5,4.468-.97,1.306-8.379,8.708-9.564,9.366m6.9,4.133a2.644,2.644,0,0,1-3.895-3.5,89.651,89.651,0,0,1,7.855-7.921,3.117,3.117,0,0,1,1.135-.64,2.674,2.674,0,0,1,2.984,3.965c-2.621,2.15-5.4,6.24-8.079,8.092m5.214,5.6a2.638,2.638,0,0,1-3.823-3.425,53.167,53.167,0,0,1,5.628-5.81,4.712,4.712,0,0,1,1.427-.938A2.641,2.641,0,0,1,56.424,27.1a72.332,72.332,0,0,1-6.216,6.208" data-name="Trazado 2176" id="Trazado_2176" transform="translate(0.001 0)"/>
      </g>
    </g>
  </g>
</svg>