<?xml version="1.0" encoding="utf-8"?>
<svg xmlns="http://www.w3.org/2000/svg" height="96.728" viewBox="0 0 96.728 96.728" width="96.728">
  <defs>
    <filter filterUnits="userSpaceOnUse" height="96.728" id="Rectngulo_4440" width="96.728" x="0" y="0">
      <feOffset dx="1" dy="1"/>
      <feGaussianBlur result="blur" stdDeviation="2"/>
      <feFlood flood-opacity="0.271"/>
      <feComposite in2="blur" operator="in"/>
      <feComposite in="SourceGraphic"/>
    </filter>
    <clipPath id="clip-path">
      <rect data-name="Rectángulo 4454" fill="none" height="58.359" id="Rectngulo_4454" width="52.53"/>
    </clipPath>
  </defs>
  <g data-name="Grupo 4378" id="Grupo_4378" transform="translate(5 5)">
    <g filter="url(#Rectngulo_4440)" transform="matrix(1, 0, 0, 1, -5, -5)">
      <g data-name="Rectángulo 4440" fill="#d832f4" id="Rectngulo_4440-2" stroke="#d531f0" stroke-width="6" transform="translate(5 5)">
        <rect height="84.728" rx="3" stroke="none" width="84.728"/>
        <rect fill="none" height="78.728" width="78.728" x="3" y="3"/>
      </g>
    </g>
    <g data-name="Grupo 4365" id="Grupo_4365" transform="translate(16.099 13.184)">
      <g clip-path="url(#clip-path)" data-name="Grupo 4364" id="Grupo_4364">
        <path d="M8.82,83.53c.137,1.909,1.362,7.664,2.235,9.272a1.216,1.216,0,0,0,2.311-.5c.025-.767-1.1-3.59-1.351-4.662C9.42,76.408,13.69,66.7,24.543,62.352c12.824-5.133,29.21,3.246,29.8,17.7.21,5.1-3.865,8.421-8.781,6.58-5.112-1.915-2.975-6.56-5.518-10.193-4.457-6.367-15.358-3.942-16.055,3.807-.773,8.607,5.05,17.024,12.671,20.573,1.035.482,4.3,1.844,5.253,1.531a1.23,1.23,0,0,0,.441-1.924,31.188,31.188,0,0,0-3.808-1.492c-5.61-2.463-9.687-6.582-11.361-12.574-.88-3.152-1.55-6.9,1.07-9.431,3.146-3.033,8.85-2.024,10.445,2.129.986,2.567.235,4.587,2.212,7.1,4.027,5.127,12.858,4.227,15.255-1.9,2.134-5.455-1.061-13.341-4.753-17.54C36.514,49.773,7.143,60.1,8.82,83.53" data-name="Trazado 2177" fill="#fff" id="Trazado_2177" transform="translate(-6.606 -44.039)"/>
        <path d="M33.77,6.893a35.454,35.454,0,0,1,29.9-1.724c1.149.458,4.853,2.912,5.276.864.219-1.06-.569-1.424-1.361-1.852A40.287,40.287,0,0,0,51.032,0c-5.177.082-13.025,1.615-17.5,4.267-1.631.967-1.838,2.377.237,2.623" data-name="Trazado 2178" fill="#fff" id="Trazado_2178" transform="translate(-24.354 0)"/>
        <path d="M50.389,40.174A32.362,32.362,0,0,0,24.662,29.639c-8.876.619-17.351,4.194-22.994,11.181-.754.934-2.784,2.985-.866,3.787,1.189.5,2.561-2.133,3.327-2.972,11.617-12.725,32.63-12.713,44.249,0,.895.979,1.948,3.322,3.433,2.885,2.014-.593-.77-3.6-1.422-4.346" data-name="Trazado 2179" fill="#fff" id="Trazado_2179" transform="translate(0 -22.323)"/>
        <path d="M47.645,118.449a24.7,24.7,0,0,1-5.223-14.14c-.634-17.109,25-19.8,27.948-2.349.15.89-.263,2.273,1.046,2.437,2.2.276,1.348-3.1,1.081-4.379-1.7-8.145-9.959-13.224-18.051-12.365a19.588,19.588,0,0,0-6.892,2.43c-10.967,6.477-8.685,21.07-1.915,29.823.677.875,3.175,4.022,4.187,4.023a1.323,1.323,0,0,0,1.144-1.676c-.164-.617-2.695-2.994-3.325-3.8" data-name="Trazado 2180" fill="#fff" id="Trazado_2180" transform="translate(-30.153 -66.096)"/>
        <path d="M121.193,160.341c-2.5-.032-4.846.347-7.331-.166a12.617,12.617,0,0,1-9.634-9.917c-.271-1.257.038-4.1-1.929-3.657-1.363.307-.793,2.632-.627,3.653,1.4,8.659,10.1,14.268,18.639,12.514,1.586-.326,2.338-1.312.881-2.428" data-name="Trazado 2181" fill="#fff" id="Trazado_2181" transform="translate(-76.555 -110.632)"/>
      </g>
    </g>
  </g>
</svg>